<svg width="57" height="57" viewBox="0 0 57 57" fill="none" xmlns="http://www.w3.org/2000/svg">
<g clip-path="url(#clip0)">
<path d="M47.4158 51.195L47.4158 56.0173C47.4158 56.5602 46.9761 56.9999 46.4332 56.9999L10.5668 56.9999C10.0239 56.9999 9.58417 56.5602 9.58417 56.0173L9.58417 51.195C9.58417 46.1356 13.6855 42.0368 18.7461 42.0356C20.5345 42.0343 22.1091 41.1143 23.0156 39.719C23.9263 38.3195 23.8324 37.1025 23.8324 36.1188L23.8509 36.0734C19.4413 34.2481 16.3398 29.9036 16.3398 24.8344L16.3398 24.45C14.5889 24.45 13.2691 23.0663 13.2691 21.4357L13.2691 16.3309C13.2298 14.5536 13.3108 8.28557 17.8383 3.92142C23.1028 -1.15269 31.4454 -0.737521 37.4887 1.97702C37.6852 2.06546 37.6791 2.34674 37.4801 2.42903L35.9042 3.07758C35.6683 3.17461 35.7187 3.52222 35.9717 3.54924L36.737 3.63154C40.401 4.02337 43.8046 6.01321 45.9148 9.32471C45.9713 9.41437 45.9554 9.55072 45.8829 9.6281C44.5809 11.005 43.8537 12.8327 43.8537 14.7329L43.8537 21.4357C43.8537 23.1001 42.5038 24.45 40.8395 24.45L40.6602 24.45L40.6602 24.8344C40.6602 29.9036 37.5587 34.2481 33.1491 36.0734L33.1675 36.1188C33.1675 37.0741 33.0659 38.3077 33.9843 39.719C34.8908 41.1143 36.4655 42.0343 38.2539 42.0356C43.3145 42.0368 47.4158 46.1356 47.4158 51.195Z" fill="#FFDFBA"/>
<path d="M47.4158 51.195L47.4158 56.0173C47.4158 56.56 46.9758 56.9999 46.4332 56.9999L10.5668 56.9999C10.0241 56.9999 9.58417 56.56 9.58417 56.0173L9.58417 51.195C9.58417 46.1356 13.6861 42.0374 18.7454 42.0356C20.5343 42.035 22.1094 41.1139 23.0156 39.719C26.179 42.4215 30.8191 42.4231 33.9843 39.719C34.8905 41.1139 36.4656 42.035 38.2545 42.0356C43.3139 42.0374 47.4158 46.1356 47.4158 51.195Z" fill="#FE4F60"/>
<path d="M45.9144 9.32532C45.9714 9.41486 45.9554 9.55047 45.8826 9.6276C44.5809 11.0055 43.8538 12.8326 43.8538 14.7329L43.8538 21.4357C43.8538 22.9574 42.7074 24.45 40.6602 24.45L40.6602 16.8628C40.6602 13.6066 38.0206 10.9669 34.7644 10.9669L22.2357 10.9669C18.9795 10.9669 16.3399 13.6066 16.3399 16.8628L16.3399 24.45C14.5889 24.45 13.2691 23.0663 13.2691 21.4357L13.2691 16.3309C13.2298 14.5536 13.3109 8.28556 17.8384 3.92141C23.1025 -1.15282 31.446 -0.737409 37.4882 1.97738C37.6848 2.0657 37.6796 2.3471 37.4802 2.42915L35.9042 3.07794C35.6686 3.17497 35.7182 3.52221 35.9715 3.54936L36.737 3.63153C40.4016 4.02299 43.8044 6.01284 45.9144 9.32532Z" fill="#42434D"/>
<path d="M40.6602 24.8344C40.6602 31.5527 35.2129 36.9946 28.5 36.9946C22.1753 36.9946 16.3398 32.0776 16.3398 24.45L16.3398 16.8628C16.3398 13.6065 18.9795 10.9669 22.2357 10.9669L34.7643 10.9669C38.0206 10.9669 40.6602 13.6065 40.6602 16.8628L40.6602 24.8344Z" fill="#FFEBD2"/>
<path d="M38.4492 54.9118L35.5013 54.9118C34.9587 54.9118 34.5187 54.4718 34.5187 53.9292C34.5187 53.3865 34.9587 52.9465 35.5013 52.9465L38.4492 52.9465C38.9919 52.9465 39.4319 53.3865 39.4319 53.9292C39.4319 54.4718 38.992 54.9118 38.4492 54.9118Z" fill="white"/>
<path d="M25.7467 32.6867C27.746 33.9375 26.1694 37.005 23.9809 36.1265C19.4811 34.3204 16.3398 29.9353 16.3398 24.8345L16.3398 16.8628C16.3398 15.6242 16.7218 14.4747 17.3743 13.5258C18.1744 12.3622 20.0247 12.8762 20.0247 14.4062L20.0247 22.3779C20.0247 26.8624 22.3821 30.5817 25.7467 32.6867Z" fill="#FFF3E4"/>
<path d="M33.3063 38.1357C30.2802 39.4024 26.9546 39.5007 23.6937 38.1357C23.8602 37.4446 23.8325 36.997 23.8325 36.1188L23.8509 36.0734C26.8089 37.3012 30.1854 37.3036 33.1491 36.0734L33.1676 36.1188C33.1676 36.9974 33.1398 37.4449 33.3063 38.1357Z" fill="#FFD6A6"/>
<path d="M23.6951 45.0028C23.2409 45.1456 22.7538 45.2244 22.2315 45.2289C17.1591 45.2736 13.0234 49.2844 13.0234 54.357L13.0234 55.2803C13.0234 56.23 12.2535 56.9999 11.3038 56.9999L10.5668 56.9999C10.0241 56.9999 9.58417 56.56 9.58417 56.0173L9.58417 51.195C9.58417 46.1355 13.6861 42.0374 18.7454 42.0356C20.5343 42.035 22.1094 41.1139 23.0156 39.719C23.3809 40.031 23.772 40.3114 24.184 40.5569C25.9961 41.6367 25.7073 44.3701 23.6951 45.0028Z" fill="#FF6D7A"/>
<path d="M33.3048 45.0028C33.7591 45.1456 34.2462 45.2244 34.7685 45.2289C39.8409 45.2736 43.9766 49.2844 43.9766 54.357L43.9766 55.2803C43.9766 56.23 44.7465 56.9999 45.6962 56.9999L46.4332 56.9999C46.9758 56.9999 47.4158 56.56 47.4158 56.0173L47.4158 51.195C47.4158 46.1355 43.3139 42.0374 38.2545 42.0356C36.4656 42.035 34.8906 41.1139 33.9843 39.719C33.619 40.031 33.228 40.3114 32.816 40.5569C31.004 41.6367 31.2926 44.3701 33.3048 45.0028Z" fill="#E84857"/>
<path d="M37.4801 2.42904C36.0359 3.02341 35.83 3.15447 35.3296 3.07684C27.2629 1.82643 20.1854 5.16409 17.7819 12.9998V13.001C16.8828 14.0352 16.3399 15.3864 16.3399 16.8628L16.3399 21.4717C16.3399 23.4601 13.2691 23.5985 13.2691 21.4358L13.2691 16.3309C13.2298 14.5536 13.3109 8.28557 17.8384 3.92142C23.1029 -1.15269 31.4455 -0.737522 37.4887 1.97702C37.6852 2.06546 37.6791 2.34674 37.4801 2.42904Z" fill="#4D4E59"/>
</g>
<defs>
<clipPath id="clip0">
<rect width="57" height="57" fill="white"/>
</clipPath>
</defs>
</svg>
